{"title":"Pineapple.Express.2008.BRRip.Xvid.AC3-SiC","uid":6593815,"size":1402096820,"categoryP":"video","categoryS":"movies","magnet":"?xt=urn:btih:fced97d7ff2d454279faacf7fee943813e635332&amp;dn=Pineapple.Express.2008.BRRip.Xvid.AC3-SiC&amp;tr=udp%3A%2F%2Ftracker.openbittorrent.com%3A80&amp;tr=udp%3A%2F%2Fopen.demonii.com%3A1337&amp;tr=udp%3A%2F%2Ftracker.coppersurfer.tk%3A6969&amp;tr=udp%3A%2F%2Fexodus.desync.com%3A6969","seeders":0,"leechers":1,"uploader":"sceneline","files":5,"time":1312940284,"description":"- &lt;a href=&quot;\nhttp://www.Speed.Cd&quot; rel=&quot;nofollow&quot; target=&quot;_NEW&quot;&gt;\nhttp://www.Speed.Cd&lt;/a&gt; \n       &lt;a href=&quot;\nhttp://www.Speed.Cd&quot; rel=&quot;nofollow&quot; target=&quot;_NEW&quot;&gt;\nhttp://www.Speed.Cd&lt;/a&gt;      fast  and The Hottest Private Tracker on the net\n\n(((--Registration will be open on june every weekend--)))\n\nPlease Seed back to make the speed Faster!!!\n\n------------------nfo--------------------------\n-\n\n\n\n\n\n\n\n\n\n\n\n\n\n\n\n\n\n\n\n\n\n\n\n\n\n\n\n\n\n\n\n\n\n\n\n\n\n\n\n\n          \n          \n              \n              \n                    \n                    \n                    \n                    \n\nPineapple.Express.2008.BRRip.Xvid.AC3-SiC\n\nPoster:\n[img]http://leetleech.org/images/27598038015315803991.jpg[/img]\n\nIMDB Link:\nhttp://www.imdb.com/title/tt0910936/\n\nDescription:\nA process server and his marijuana dealer wind up on the run from hitmen and a \ncorrupt police officer after he witness his dealer's boss murder a competitor \nwhile trying to serve papers on him. \n\nMediaInfo:\nGeneral\nComplete name                    : Pineapple.Express.2008.BRRip.Xvid.AC3-SiC.avi\nFormat                           : AVI\nFormat/Info                      : Audio Video Interleave\nFile size                        : 1.30 GiB\nDuration                         : 1h 57mn\nOverall bit rate                 : 1 583 Kbps\n\nVideo\nID                               : 0\nFormat                           : MPEG-4 Visual\nFormat profile                   : Advanced Simple@L5\nFormat settings, BVOP            : Yes\nFormat settings, QPel            : No\nFormat settings, GMC             : No warppoints\nFormat settings, Matrix          : Default (H.263)\nMuxing mode                      : Packed bitstream\nCodec ID                         : XVID\nCodec ID/Hint                    : XviD\nDuration                         : 1h 57mn\nBit rate                         : 1 191 Kbps\nWidth                            : 720 pixels\nHeight                           : 304 pixels\nDisplay aspect ratio             : 2.35:1\nFrame rate                       : 23.976 fps\nResolution                       : 8 bits\nColorimetry                      : 4:2:0\nScan type                        : Progressive\nBits/(Pixel*Frame)               : 0.227\nStream size                      : 1 000 MiB (75%)\nWriting library                  : XviD 64\n\nAudio\nID                               : 1\nFormat                           : AC-3\nFormat/Info                      : Audio Coding 3\nFormat_Settings_ModeExtension    : CM (complete main)\nCodec ID                         : 2000\nDuration                         : 1h 57mn\nBit rate mode                    : Constant\nBit rate                         : 384 Kbps\nChannel(s)                       : 6 channels\nChannel positions                : Front: L C R, Side: L R, LFE\nSampling rate                    : 48.0 KHz\nStream size                      : 323 MiB (24%)\nAlignment                        : Aligned on interleaves\nInterleave, duration             : 64 ms (1.53 video frames)\nInterleave, preload duration     : 192 ms\nTitle                            : 6ch English\n\nScreenshots:\n[img]http://leetleech.org/images/54733054594546290818.png[/img]\n[img]http://leetleech.org/images/14644242803151713531.png[/img]\n[img]http://leetleech.org/images/09842653486598658456.png[/img]\n[img]http://leetleech.org/images/74617239271032444736.png[/img]\n[img]http://leetleech.org/images/33994589625788044811.png[/img]\n\nNote :   N/A \n\nSource : BluRay-ESiR Thanks!!!\n\nEncoder: Bezauk\n\nEnjoy!\n\nRespects to CaptainHomey, Cyanide, CM8, Rx, THC, ELEKTRI4KA, \nKillerhz, PA, YeFsTe, BoxSlots, MrRep and everyone in the struggle...","torrent":{"xt":"urn:btih:fced97d7ff2d454279faacf7fee943813e635332","amp;dn":"Pineapple.Express.2008.BRRip.Xvid.AC3-SiC","amp;tr":["udp%3A%2F%2Ftracker.openbittorrent.com%3A80","udp%3A%2F%2Fopen.demonii.com%3A1337","udp%3A%2F%2Ftracker.coppersurfer.tk%3A6969","udp%3A%2F%2Fexodus.desync.com%3A6969"],"infoHash":"fced97d7ff2d454279faacf7fee943813e635332","infoHashBuffer":{"type":"Buffer","data":[252,237,151,215,255,45,69,66,121,250,172,247,254,233,67,129,62,99,83,50]},"announce":[],"urlList":[]}}